<svg xmlns="http://www.w3.org/2000/svg" viewBox="96 100 320 320" width="512" height="512">
  <defs>
    <linearGradient id="gradBlue" x1="0%" y1="0%" x2="100%" y2="100%">
      <stop offset="0%" stop-color="#2563EB" />
      <stop offset="100%" stop-color="#06B6D4" />
    </linearGradient>
    <filter id="shadowBlue" x="-20%" y="-20%" width="140%" height="140%">
      <feDropShadow dx="0" dy="8" stdDeviation="12" flood-color="#2563EB" flood-opacity="0.3" />
    </filter>
  </defs>
  <g filter="url(#shadowBlue)">
    <path d="M128 140 C128 128.9 137 120 148 120 H188 V150 A10 10 0 0 0 208 150 V120 H246 V150 A10 10 0 0 0 266 150 V120 H304 V150 A10 10 0 0 0 324 150 V120 H364 C375 120 384 128.9 384 140 V240 C384 330 300 380 256 400 C212 380 128 330 128 240 Z" fill="url(#gradBlue)" />
    <path d="M256 190 A 45 45 0 1 1 211 235 A 45 45 0 0 1 256 190 Z" fill="none" stroke="#FFFFFF" stroke-width="16" stroke-linecap="round" stroke-dasharray="180 80"/>
    <circle cx="256" cy="235" r="14" fill="#FFFFFF" />
  </g>
</svg>
